<svg viewBox="0 0 28 28" fill="none" xmlns="http://www.w3.org/2000/svg">
<g id="Component 1">
<path id="Union" fill-rule="evenodd" clip-rule="evenodd" d="M6.46356 0.513293C5.39855 0.220339 4.30905 0.849257 4.03009 1.91802L1.52493 11.5159C1.24597 12.5847 1.88319 13.6886 2.9482 13.9815L10.7638 16.1313L9.54305 19.3896C9.23944 20.1999 8.46492 20.7368 7.59957 20.7368H3.58722V16.586H0.474121V28.0007H3.58722V23.8499H9.75764C10.623 23.8499 11.3975 23.313 11.7011 22.5027L13.7776 16.9604L19.3235 18.4859C20.3885 18.7788 21.478 18.1499 21.757 17.0812L24.2622 7.48328C24.5411 6.41452 23.9039 5.31063 22.8389 5.01767L6.46356 0.513293ZM28 9.3244L25.3761 8.60264L23.2669 16.6836L25.8908 17.4053L28 9.3244Z" fill="currentColor"/>
</g>
</svg>
