<svg viewBox="0 0 32 32" fill="none" xmlns="http://www.w3.org/2000/svg">
<g id="icon/cameraDash">
<rect id="Rectangle 12" x="3" y="22.0358" width="12" height="7" rx="1" fill="currentColor"/>
<rect id="Rectangle 13" x="17" y="22.0358" width="12" height="7" rx="1" fill="currentColor"/>
<path id="Subtract" fill-rule="evenodd" clip-rule="evenodd" d="M4 4C3.44772 4 3 4.44772 3 5V18.7857C3 19.338 3.44772 19.7857 4 19.7857H28C28.5523 19.7857 29 19.338 29 18.7857V5C29 4.44772 28.5523 4 28 4H4ZM6.25 8.64286C7.01925 8.64286 7.64286 8.01925 7.64286 7.25C7.64286 6.48075 7.01925 5.85714 6.25 5.85714C5.48075 5.85714 4.85714 6.48075 4.85714 7.25C4.85714 8.01925 5.48075 8.64286 6.25 8.64286Z" fill="currentColor"/>
</g>
</svg>
