<svg viewBox="0 0 32 32" fill="none" xmlns="http://www.w3.org/2000/svg">
<g id="icon/Dashboard">
<g id="Rectangle 7">
<path d="M3 5C3 3.89543 3.89543 3 5 3H13.0714C14.176 3 15.0714 3.89543 15.0714 5V16.7857C15.0714 17.8903 14.176 18.7857 13.0714 18.7857H5C3.89543 18.7857 3 17.8903 3 16.7857V5Z" fill="currentColor"/>
<path d="M16.9286 16.1429C16.9286 15.0383 17.824 14.1429 18.9286 14.1429H27C28.1046 14.1429 29 15.0383 29 16.1429V27C29 28.1046 28.1046 29 27 29H18.9286C17.824 29 16.9286 28.1046 16.9286 27V16.1429Z" fill="currentColor"/>
<path d="M3 22.6429C3 21.5383 3.89543 20.6429 5 20.6429H13.0714C14.176 20.6429 15.0714 21.5383 15.0714 22.6429V27C15.0714 28.1046 14.176 29 13.0714 29H5C3.89543 29 3 28.1046 3 27V22.6429Z" fill="currentColor"/>
<path d="M16.9286 5C16.9286 3.89543 17.824 3 18.9286 3H27C28.1046 3 29 3.89543 29 5V10.2857C29 11.3903 28.1046 12.2857 27 12.2857H18.9286C17.824 12.2857 16.9286 11.3903 16.9286 10.2857V5Z" fill="currentColor"/>
</g>
</g>
</svg>
