<svg viewBox="0 0 32 32" fill="none" xmlns="http://www.w3.org/2000/svg">
<g id="icon/SIM">
<path id="Subtract" fill-rule="evenodd" clip-rule="evenodd" d="M25 3C26.1046 3 27 3.89543 27 5V27C27 28.1046 26.1046 29 25 29H8C6.89543 29 6 28.1046 6 27V11.5231C6 10.9647 6.23346 10.4317 6.6439 10.0531L13.715 3.52997C14.0844 3.18921 14.5685 3 15.0711 3H25ZM24 17C24 15.8954 23.1046 15 22 15H18C16.8954 15 16 15.8954 16 17V24C16 25.1046 16.8954 26 18 26H22C23.1046 26 24 25.1046 24 24V17Z" fill="currentColor"/>
</g>
</svg>
