<svg width="213" height="55" viewBox="0 0 213 55" fill="none" xmlns="http://www.w3.org/2000/svg">
<g id="Logo">
<path id="Union" fill-rule="evenodd" clip-rule="evenodd" d="M27.4909 55C42.6736 55 54.9817 42.6878 54.9817 27.5C54.9817 12.3122 42.6736 0 27.4909 0C12.3081 0 0 12.3122 0 27.5C0 42.6878 12.3081 55 27.4909 55ZM28.5732 51.5115C41.3409 50.9453 51.5183 40.4116 51.5183 27.5C51.5183 14.4132 41.0627 3.76923 28.0519 3.47099C28.6628 4.29801 29.872 6.17156 29.872 8.04512C29.872 9.92059 29.3527 11.3952 28.5732 12.019V16.8965L29.8952 15.514C29.5399 14.5512 29.8505 13.0197 30.8232 11.4315C32.1357 9.2886 35.3863 8.33348 35.3863 8.33348C35.3863 8.33348 36.0118 11.6642 34.6993 13.8071C33.683 15.4663 32.3937 16.4533 31.3494 16.4993L28.5732 19.4027V26.2751L32.4218 22.4252C32.2201 21.4386 32.6611 20.0065 33.7061 18.571C35.1851 16.5394 38.5014 15.8463 38.5014 15.8463C38.5014 15.8463 38.8597 19.2163 37.3807 21.2479C36.1689 22.9125 34.7121 23.8023 33.6478 23.6486L28.5732 28.7249V39.6774L35.376 28.9594C35.1244 27.931 35.7806 26.4038 37.1928 24.9912C38.9693 23.2141 42.3529 23.0447 42.3529 23.0447C42.3529 23.0447 42.1836 26.4295 40.4071 28.2065C39.1192 29.4949 37.7361 30.1542 36.7227 30.0694L35.0551 32.6968H35.8761C36.5286 31.9143 37.9774 31.3976 39.8068 31.3976C42.3192 31.3976 44.8315 33.6713 44.8315 33.6713C44.8315 33.6713 42.3192 35.9449 39.8068 35.9449C37.8135 35.9449 36.2721 35.3315 35.7202 34.4291H33.9556L31.2068 38.7598H33.5445C34.3548 38.1599 35.8446 37.9608 37.5912 38.3138C40.0538 38.8115 42.0663 41.5378 42.0663 41.5378C42.0663 41.5378 39.1536 43.2687 36.6911 42.771C34.748 42.3783 33.363 41.4795 32.9915 40.4921H30.1073L28.5732 42.9092V51.5115ZM26.8415 51.5268C13.8717 51.1826 3.46341 40.5572 3.46341 27.5C3.46341 14.2668 14.1541 3.53146 27.3672 3.46488C26.7578 4.28874 25.5427 6.16693 25.5427 8.04512C25.5427 9.92058 26.0619 11.3952 26.8415 12.0189V16.8965L25.5364 15.5317C25.9021 14.5701 25.5937 13.0295 24.615 11.4315C23.3025 9.2886 20.0519 8.33348 20.0519 8.33348C20.0519 8.33348 19.4264 11.6642 20.7389 13.8071C21.7471 15.4532 23.0241 16.4377 24.064 16.498L26.8415 19.4027V26.2751L23.0123 22.4447C23.2239 21.4575 22.784 20.016 21.7321 18.571C20.2531 16.5394 16.9368 15.8463 16.9368 15.8463C16.9368 15.8463 16.5785 19.2163 18.0575 21.2479C19.2615 22.9017 20.7073 23.7907 21.7697 23.6515L26.8415 28.7249V39.6774L20.0555 28.9859C20.325 27.9573 19.6698 26.416 18.2454 24.9912C16.4689 23.2141 13.0853 23.0447 13.0853 23.0447C13.0853 23.0447 13.2546 26.4295 15.0311 28.2065C16.3095 29.4854 17.6818 30.1445 18.693 30.0711L20.3596 32.6968H19.5621C18.9096 31.9143 17.4608 31.3976 15.6314 31.3976C13.119 31.3976 10.6067 33.6713 10.6067 33.6713C10.6067 33.6713 13.119 35.9449 15.6314 35.9449C17.6247 35.9449 19.1661 35.3315 19.7179 34.4291H21.4591L24.2078 38.7598H21.8937C21.0834 38.1599 19.5936 37.9608 17.8469 38.3138C15.3844 38.8115 13.3719 41.5378 13.3719 41.5378C13.3719 41.5378 16.2846 43.2687 18.7471 42.771C20.6902 42.3783 22.0752 41.4795 22.4467 40.4921H25.3073L26.8415 42.9092V51.5268Z" fill="#28D890"/>
<g id="Vector">
<path d="M201.589 21.7185C201.459 21.8051 201.264 21.9639 201.005 22.1949C200.759 22.4258 200.485 22.7001 200.182 23.0177C199.879 23.3209 199.554 23.6529 199.208 24.0138C198.876 24.3747 198.551 24.7211 198.234 25.0531L196.762 26.6122C197.31 27.4206 197.837 28.2362 198.342 29.059C198.862 29.8674 199.461 30.647 200.139 31.3976C200.427 31.7296 200.709 32.0256 200.983 32.2854C201.272 32.5308 201.575 32.7474 201.892 32.935C202.21 33.1083 202.549 33.2598 202.91 33.3898C203.27 33.5052 203.682 33.5991 204.143 33.6713L204.273 33.7579L204.317 34.5807L204.273 34.6673C204.057 34.6673 203.826 34.6673 203.581 34.6673C203.335 34.6817 203.083 34.6962 202.823 34.7106C202.578 34.7251 202.347 34.7323 202.13 34.7323C201.914 34.7467 201.733 34.7539 201.589 34.7539C201.214 34.7539 200.868 34.7034 200.55 34.6024C200.233 34.5157 199.922 34.3642 199.619 34.1476C199.331 33.9311 199.035 33.6424 198.732 33.2815C198.429 32.9206 198.097 32.4803 197.736 31.9606C197.65 31.8307 197.498 31.6069 197.282 31.2894C197.08 30.9573 196.856 30.5964 196.611 30.2067C196.365 29.8169 196.12 29.4272 195.875 29.0374C195.629 28.6332 195.413 28.2867 195.225 27.998C195.052 28.1568 194.879 28.3156 194.706 28.4744C194.532 28.6188 194.367 28.7703 194.208 28.9291V29.1024C194.208 29.7087 194.208 30.1778 194.208 30.5098C194.208 30.8274 194.208 31.0873 194.208 31.2894C194.222 31.477 194.229 31.6358 194.229 31.7657C194.244 31.8812 194.258 32.0328 194.273 32.2205C194.302 32.6391 194.366 32.9278 194.468 33.0866C194.569 33.2454 194.677 33.3681 194.792 33.4547C194.922 33.5702 195.088 33.6352 195.29 33.6496C195.507 33.664 195.73 33.6713 195.961 33.6713L196.048 33.7579L196.113 34.5807L196.069 34.6673C195.968 34.6673 195.802 34.6601 195.571 34.6457C195.341 34.6312 195.102 34.6168 194.857 34.6024C194.612 34.5879 194.374 34.5735 194.143 34.559C193.912 34.5446 193.746 34.5374 193.645 34.5374H192.368C192.267 34.5374 192.101 34.5446 191.87 34.559C191.639 34.5735 191.401 34.5879 191.156 34.6024C190.91 34.6168 190.672 34.6312 190.441 34.6457C190.21 34.6601 190.044 34.6673 189.943 34.6673L189.9 34.5807L189.965 33.7579L190.073 33.6713C190.304 33.6713 190.521 33.664 190.723 33.6496C190.925 33.6207 191.091 33.5558 191.221 33.4547C191.336 33.3537 191.444 33.2237 191.545 33.065C191.661 32.9062 191.733 32.6247 191.762 32.2205C191.762 32.1194 191.762 32.0039 191.762 31.874C191.776 31.7296 191.783 31.5564 191.783 31.3543C191.798 31.1522 191.805 30.9068 191.805 30.6181C191.805 30.3294 191.805 29.9685 191.805 29.5354V26.0059C191.805 25.5006 191.805 25.0748 191.805 24.7283C191.805 24.3819 191.805 24.0859 191.805 23.8405C191.805 23.5951 191.798 23.3858 191.783 23.2126C191.783 23.0394 191.776 22.8661 191.762 22.6929C191.733 22.3031 191.661 22.0216 191.545 21.8484C191.444 21.6752 191.336 21.5453 191.221 21.4587C191.091 21.3432 190.925 21.2782 190.723 21.2638C190.521 21.2493 190.304 21.2421 190.073 21.2421L189.965 21.1555L189.9 20.3327L189.943 20.2461C190.044 20.2461 190.21 20.2533 190.441 20.2677C190.672 20.2821 190.91 20.2966 191.156 20.311C191.401 20.3255 191.639 20.3399 191.87 20.3543C192.101 20.3688 192.267 20.376 192.368 20.376H193.645C193.746 20.376 193.912 20.3688 194.143 20.3543C194.374 20.3399 194.612 20.3255 194.857 20.311C195.102 20.2966 195.341 20.2821 195.571 20.2677C195.802 20.2533 195.968 20.2461 196.069 20.2461L196.113 20.3327L196.048 21.1555L195.961 21.2421C195.759 21.2421 195.543 21.2566 195.312 21.2854C195.095 21.2999 194.922 21.3576 194.792 21.4587C194.677 21.5597 194.561 21.6896 194.446 21.8484C194.345 22.0072 194.287 22.2887 194.273 22.6929C194.258 22.8661 194.244 23.0394 194.229 23.2126C194.229 23.3714 194.222 23.5663 194.208 23.7972C194.208 24.0138 194.208 24.2736 194.208 24.5768C194.208 24.8655 194.208 25.2192 194.208 25.6378V26.6772C194.496 26.5328 194.828 26.3163 195.204 26.0276C195.579 25.7244 195.954 25.3996 196.329 25.0531C196.603 24.7933 196.885 24.5118 197.173 24.2087C197.462 23.8911 197.722 23.5879 197.953 23.2992C198.198 23.0105 198.393 22.7506 198.537 22.5197C198.681 22.2887 198.754 22.1299 198.754 22.0433C198.754 21.8845 198.717 21.7618 198.645 21.6752C198.588 21.5741 198.501 21.4947 198.386 21.437C198.284 21.3793 198.162 21.3359 198.018 21.3071C197.873 21.2782 197.729 21.2493 197.585 21.2205L197.476 21.1338V20.311L197.585 20.2244C197.873 20.2821 198.176 20.3182 198.494 20.3327C198.826 20.3471 199.158 20.3543 199.489 20.3543H201.416C201.589 20.3543 201.733 20.3543 201.849 20.3543C201.979 20.3543 202.101 20.3471 202.217 20.3327C202.347 20.3182 202.484 20.3038 202.628 20.2894C202.773 20.2749 202.946 20.2533 203.148 20.2244L203.234 20.311V21.1338L203.148 21.2205C202.946 21.2493 202.686 21.3071 202.368 21.3937C202.065 21.4803 201.806 21.5886 201.589 21.7185Z" fill="#28D890"/>
<path d="M187.99 20.3327L187.947 21.1555L187.838 21.2421C187.622 21.2421 187.405 21.2566 187.189 21.2854C186.987 21.2999 186.821 21.3576 186.691 21.4587C186.576 21.5597 186.453 21.6896 186.323 21.8484C186.208 22.0072 186.128 22.2887 186.085 22.6929C186.071 22.895 186.056 23.0827 186.042 23.2559C186.042 23.4291 186.034 23.6312 186.02 23.8622C186.02 24.0932 186.02 24.3747 186.02 24.7067C186.02 25.0387 186.02 25.4646 186.02 25.9842V29.3622C186.02 30.1706 186.02 30.8346 186.02 31.3543C186.034 31.874 186.042 32.3215 186.042 32.6968C186.056 33.0577 186.071 33.3825 186.085 33.6713C186.114 33.96 186.143 34.2775 186.172 34.624L185.998 34.7323L183.336 34.624L183.119 34.3642L176.431 24.2736C176.46 24.5335 176.474 24.9521 176.474 25.5295C176.488 26.0925 176.496 26.7493 176.496 27.5V29.1024C176.496 29.2756 176.496 29.5066 176.496 29.7953C176.496 30.0695 176.496 30.3583 176.496 30.6614C176.51 30.9646 176.517 31.2605 176.517 31.5492C176.532 31.8235 176.546 32.0472 176.561 32.2205C176.589 32.5814 176.669 32.8556 176.799 33.0433C176.929 33.231 177.066 33.3681 177.21 33.4547C177.325 33.5702 177.477 33.6352 177.665 33.6496C177.852 33.664 178.09 33.6713 178.379 33.6713L178.487 33.7579L178.552 34.5807L178.509 34.6673C178.393 34.6673 178.227 34.6601 178.011 34.6457C177.809 34.6312 177.592 34.6168 177.361 34.6024C177.145 34.5879 176.929 34.5735 176.712 34.559C176.51 34.5446 176.359 34.5374 176.258 34.5374H174.98C174.879 34.5374 174.713 34.5446 174.483 34.559C174.252 34.5735 174.014 34.5879 173.768 34.6024C173.523 34.6168 173.285 34.6312 173.054 34.6457C172.823 34.6601 172.657 34.6673 172.556 34.6673L172.513 34.5807L172.578 33.7579L172.686 33.6713C172.946 33.6713 173.162 33.664 173.335 33.6496C173.523 33.6207 173.689 33.5558 173.833 33.4547C173.934 33.3825 174.057 33.2671 174.201 33.1083C174.345 32.935 174.439 32.6391 174.483 32.2205C174.497 32.1194 174.504 32.0039 174.504 31.874C174.519 31.7296 174.526 31.5564 174.526 31.3543C174.526 31.1522 174.526 30.9068 174.526 30.6181C174.526 30.3294 174.526 29.9685 174.526 29.5354V26.0059C174.526 25.5006 174.526 25.0748 174.526 24.7283C174.526 24.3819 174.526 24.0859 174.526 23.8405C174.526 23.5951 174.519 23.3858 174.504 23.2126C174.504 23.0394 174.497 22.8661 174.483 22.6929C174.454 22.3898 174.367 22.1299 174.223 21.9134C174.093 21.6968 173.963 21.5453 173.833 21.4587C173.703 21.3432 173.537 21.2782 173.335 21.2638C173.148 21.2493 172.931 21.2421 172.686 21.2421L172.578 21.1555L172.513 20.3327L172.556 20.2461C172.657 20.2461 172.801 20.2533 172.989 20.2677C173.191 20.2821 173.393 20.2966 173.595 20.311C173.797 20.3255 173.992 20.3399 174.179 20.3543C174.382 20.3688 174.533 20.376 174.634 20.376H176.474C176.589 20.376 176.734 20.3688 176.907 20.3543C177.08 20.3399 177.232 20.3182 177.361 20.2894L177.47 20.3543C177.513 20.5564 177.621 20.8379 177.794 21.1988C177.968 21.5453 178.177 21.9422 178.422 22.3898C178.682 22.8228 178.956 23.2848 179.245 23.7756C179.533 24.252 179.822 24.7283 180.111 25.2047C180.63 26.0709 181.092 26.8287 181.496 27.4783C181.9 28.1135 182.261 28.6693 182.578 29.1457C182.896 29.622 183.17 30.0262 183.401 30.3583C183.632 30.6758 183.827 30.9429 183.985 31.1594C183.985 30.7841 183.985 30.416 183.985 30.0551C184 29.6942 184.007 29.3261 184.007 28.9508V26.0059C184.007 25.5006 184.007 25.0748 184.007 24.7283C184.007 24.3819 184 24.0859 183.985 23.8405C183.985 23.5951 183.978 23.3858 183.964 23.2126C183.964 23.0394 183.956 22.8661 183.942 22.6929C183.913 22.4475 183.848 22.2237 183.747 22.0216C183.661 21.8051 183.516 21.6174 183.314 21.4587C183.184 21.3432 183.011 21.2782 182.795 21.2638C182.593 21.2493 182.376 21.2421 182.145 21.2421L182.059 21.1555L181.994 20.3327L182.037 20.2461C182.138 20.2461 182.282 20.2533 182.47 20.2677C182.658 20.2821 182.845 20.2966 183.033 20.311C183.235 20.3255 183.43 20.3399 183.617 20.3543C183.805 20.3688 183.949 20.376 184.05 20.376H185.933C186.034 20.376 186.179 20.376 186.366 20.376C186.554 20.3615 186.749 20.3471 186.951 20.3327C187.153 20.3182 187.348 20.3038 187.535 20.2894C187.723 20.2749 187.867 20.2605 187.968 20.2461L187.99 20.3327Z" fill="#28D890"/>
<path d="M164.477 20.1378L168.2 29.9685C168.33 30.3294 168.446 30.6325 168.547 30.8779C168.648 31.1234 168.727 31.3327 168.785 31.5059C168.857 31.6791 168.915 31.8235 168.958 31.939C169.016 32.04 169.066 32.1338 169.11 32.2205C169.283 32.5814 169.456 32.8629 169.629 33.065C169.817 33.2526 169.997 33.397 170.17 33.498C170.358 33.5846 170.545 33.6352 170.733 33.6496C170.921 33.664 171.108 33.6713 171.296 33.6713L171.404 33.7579L171.469 34.5807L171.426 34.6673C171.325 34.6673 171.173 34.6601 170.971 34.6457C170.769 34.6312 170.56 34.6168 170.343 34.6024C170.127 34.5879 169.918 34.5735 169.716 34.559C169.528 34.5446 169.384 34.5374 169.283 34.5374H167.702C167.601 34.5374 167.436 34.5446 167.205 34.559C166.974 34.5735 166.728 34.5879 166.469 34.6024C166.223 34.6168 165.985 34.6312 165.754 34.6457C165.523 34.6601 165.357 34.6673 165.256 34.6673L165.213 34.5807L165.278 33.7579L165.365 33.6713C165.74 33.6713 166.021 33.6279 166.209 33.5413C166.411 33.4403 166.512 33.1804 166.512 32.7618C166.512 32.5308 166.469 32.206 166.382 31.7874C166.31 31.3543 166.13 30.8202 165.841 30.185L165.386 29.1457H161.598L161.165 30.185C160.906 30.8202 160.711 31.3615 160.581 31.809C160.451 32.2566 160.386 32.5741 160.386 32.7618C160.386 33.1083 160.458 33.3464 160.602 33.4764C160.747 33.6063 161.007 33.6713 161.382 33.6713L161.49 33.7579L161.555 34.5807L161.512 34.6673C161.411 34.6673 161.252 34.6601 161.035 34.6457C160.819 34.6312 160.588 34.6168 160.343 34.6024C160.112 34.5879 159.888 34.5735 159.672 34.559C159.455 34.5446 159.297 34.5374 159.195 34.5374H157.918C157.817 34.5374 157.666 34.5446 157.464 34.559C157.262 34.5735 157.052 34.5879 156.836 34.6024C156.62 34.6168 156.41 34.6312 156.208 34.6457C156.021 34.6601 155.876 34.6673 155.775 34.6673L155.754 34.5807L155.797 33.7579L155.905 33.6713C156.093 33.6713 156.28 33.6568 156.468 33.6279C156.656 33.5991 156.843 33.5341 157.031 33.4331C157.218 33.332 157.399 33.1949 157.572 33.0216C157.76 32.834 157.947 32.5958 158.135 32.3071C158.178 32.2205 158.243 32.0905 158.33 31.9173C158.416 31.7297 158.553 31.4048 158.741 30.9429C158.929 30.481 159.188 29.8241 159.52 28.9724C159.852 28.1207 160.292 26.9875 160.841 25.5728L162.702 20.7874L164.239 20.1378H164.477ZM161.966 27.565H164.802L163.417 23.7323L161.966 27.565Z" fill="#28D890"/>
<path d="M146.001 34.5374C145.9 34.5374 145.734 34.5446 145.503 34.559C145.272 34.5735 145.034 34.5879 144.788 34.6024C144.543 34.6168 144.305 34.6312 144.074 34.6457C143.843 34.6601 143.677 34.6673 143.576 34.6673L143.533 34.5807L143.598 33.7579L143.706 33.6713C143.879 33.6713 144.081 33.664 144.312 33.6496C144.543 33.6207 144.724 33.563 144.853 33.4764C144.969 33.3898 145.077 33.2526 145.178 33.065C145.279 32.8773 145.351 32.5958 145.395 32.2205C145.409 32.0039 145.416 31.6791 145.416 31.2461C145.431 30.813 145.438 30.1706 145.438 29.3189V24.7716C145.438 24.4829 145.438 24.1581 145.438 23.7972C145.438 23.4219 145.423 23.0538 145.395 22.6929C145.366 22.3031 145.294 22.0216 145.178 21.8484C145.077 21.6752 144.969 21.5453 144.853 21.4587C144.724 21.3432 144.586 21.2782 144.442 21.2638C144.312 21.2493 144.067 21.2421 143.706 21.2421L143.598 21.1555L143.533 20.3327L143.576 20.2461C143.677 20.2461 143.807 20.2533 143.966 20.2677C144.139 20.2821 144.312 20.2966 144.485 20.311C144.673 20.3255 144.861 20.3399 145.048 20.3543C145.236 20.3688 145.409 20.376 145.568 20.376H147.213C147.372 20.376 147.552 20.376 147.754 20.376C147.956 20.3615 148.158 20.3543 148.36 20.3543C148.577 20.3543 148.771 20.3543 148.945 20.3543C149.118 20.3399 149.255 20.3327 149.356 20.3327C150.135 20.3327 150.799 20.4121 151.347 20.5709C151.91 20.7297 152.365 20.9534 152.711 21.2421C153.057 21.5308 153.31 21.8773 153.469 22.2815C153.642 22.6857 153.728 23.1332 153.728 23.624C153.728 24.0571 153.656 24.4396 153.512 24.7716C153.382 25.1037 153.202 25.3996 152.971 25.6594C152.754 25.9048 152.502 26.1214 152.213 26.309C151.925 26.4823 151.629 26.6338 151.326 26.7638C152.509 26.9514 153.425 27.3484 154.075 27.9547C154.724 28.561 155.049 29.3983 155.049 30.4665C155.049 31.1883 154.919 31.809 154.659 32.3287C154.399 32.834 154.031 33.2526 153.555 33.5846C153.093 33.9022 152.538 34.1404 151.888 34.2992C151.239 34.458 150.525 34.5374 149.746 34.5374H146.001ZM147.841 27.998C147.841 28.3012 147.841 28.6621 147.841 29.0807C147.841 29.4993 147.841 29.9035 147.841 30.2933C147.855 30.6831 147.862 31.0367 147.862 31.3543C147.877 31.6719 147.891 31.8884 147.906 32.0039C147.934 32.3937 148.014 32.6319 148.144 32.7185C148.274 32.8051 148.447 32.8484 148.663 32.8484H149.118C149.464 32.8484 149.839 32.8195 150.243 32.7618C150.662 32.6896 151.051 32.5669 151.412 32.3937C151.773 32.2205 152.076 31.9823 152.321 31.6791C152.567 31.376 152.689 30.9862 152.689 30.5098C152.689 30.1056 152.596 29.752 152.408 29.4488C152.22 29.1312 151.961 28.8642 151.629 28.6476C151.297 28.4311 150.907 28.2723 150.46 28.1713C150.027 28.0558 149.551 27.998 149.031 27.998H147.841ZM148.403 26.5472C148.865 26.5472 149.233 26.5184 149.507 26.4606C149.796 26.4029 150.106 26.2513 150.438 26.0059C150.756 25.8038 151.015 25.5151 151.217 25.1398C151.419 24.75 151.521 24.2953 151.521 23.7756C151.521 23.227 151.304 22.8084 150.871 22.5197C150.438 22.2165 149.825 22.065 149.031 22.065H147.949C147.906 22.7001 147.877 23.1765 147.862 23.4941C147.848 23.7972 147.841 24.0715 147.841 24.3169V25.6594C147.841 25.9915 147.855 26.2224 147.884 26.3524C147.913 26.4823 148.021 26.5472 148.209 26.5472H148.403Z" fill="#28D890"/>
<path d="M133.628 23.6457C133.628 24.021 133.729 24.3386 133.931 24.5984C134.133 24.8583 134.408 25.0892 134.754 25.2913C135.1 25.479 135.504 25.6594 135.966 25.8327C136.428 26.0059 136.919 26.1863 137.438 26.374C137.958 26.5761 138.455 26.7926 138.932 27.0236C139.408 27.2401 139.826 27.5144 140.187 27.8464C140.562 28.164 140.858 28.5466 141.075 28.9941C141.306 29.4272 141.421 29.9541 141.421 30.5748C141.421 31.21 141.298 31.7874 141.053 32.3071C140.808 32.8123 140.454 33.2526 139.992 33.6279C139.545 33.9888 138.989 34.2703 138.326 34.4724C137.676 34.6745 136.947 34.7756 136.139 34.7756C135.273 34.7756 134.408 34.6673 133.542 34.4508C132.676 34.2342 131.904 33.9383 131.226 33.563L131.139 33.2815L131.637 30.3799H132.611L132.719 30.5098C132.806 31.5059 133.138 32.2132 133.715 32.6319C134.307 33.0505 135.107 33.2598 136.118 33.2598C137.113 33.2598 137.835 33.0866 138.282 32.7401C138.73 32.3793 138.953 31.8524 138.953 31.1594C138.953 30.7119 138.859 30.3438 138.672 30.0551C138.484 29.7664 138.217 29.521 137.871 29.3189C137.539 29.1168 137.135 28.9363 136.659 28.7776C136.183 28.6188 135.656 28.4311 135.079 28.2146C134.559 28.0269 134.076 27.8248 133.628 27.6083C133.181 27.3773 132.791 27.1102 132.459 26.8071C132.142 26.4895 131.889 26.1142 131.702 25.6811C131.514 25.248 131.42 24.7283 131.42 24.122C131.42 22.8517 131.832 21.8701 132.654 21.1772C133.491 20.4842 134.761 20.1378 136.464 20.1378C137.243 20.1378 137.972 20.2316 138.65 20.4193C139.328 20.5925 139.899 20.8018 140.36 21.0472L140.447 21.2854L140.101 23.7539H139.062L138.953 23.6457C138.867 23.0394 138.607 22.5702 138.174 22.2382C137.741 21.9062 137.135 21.7401 136.356 21.7401C135.49 21.7401 134.819 21.9134 134.343 22.2598C133.866 22.6063 133.628 23.0682 133.628 23.6457Z" fill="#28D890"/>
<path d="M124.338 20.376C124.54 20.376 124.836 20.376 125.225 20.376C125.629 20.3615 126.041 20.3471 126.459 20.3327C126.878 20.3182 127.253 20.311 127.585 20.311C127.917 20.2966 128.119 20.2894 128.191 20.2894L128.321 20.5059L128.212 23.2992H127.238L127.152 23.2126C127.123 22.9383 127.08 22.7218 127.022 22.563C126.979 22.4042 126.849 22.2887 126.632 22.2165C126.416 22.1443 126.077 22.101 125.615 22.0866C125.168 22.0722 124.54 22.065 123.732 22.065H122.498L122.476 22.2598C122.462 22.4619 122.447 22.6496 122.433 22.8228C122.433 22.9961 122.426 23.1982 122.411 23.4291C122.411 23.6601 122.411 23.9416 122.411 24.2736C122.411 24.6056 122.411 25.0315 122.411 25.5512V26.2874C122.758 26.273 123.089 26.273 123.407 26.2874C123.724 26.2874 124.02 26.2802 124.294 26.2657C124.569 26.2513 124.8 26.2296 124.987 26.2008C125.189 26.1575 125.333 26.0925 125.42 26.0059C125.564 25.8615 125.637 25.6594 125.637 25.3996L125.745 25.2913L126.546 25.248L126.632 25.2913C126.603 25.6234 126.575 25.9121 126.546 26.1575C126.531 26.4029 126.524 26.6844 126.524 27.002C126.524 27.3484 126.531 27.6732 126.546 27.9764C126.575 28.2651 126.603 28.5827 126.632 28.9291L126.546 28.9724L125.723 28.9291L125.637 28.8642C125.637 28.5033 125.572 28.2362 125.442 28.063C125.326 27.9042 124.994 27.8176 124.446 27.8031C123.912 27.7743 123.313 27.7598 122.649 27.7598H122.411V29.5354C122.411 29.9541 122.411 30.3005 122.411 30.5748C122.426 30.8491 122.433 31.0873 122.433 31.2894C122.447 31.477 122.462 31.6575 122.476 31.8307C122.491 32.0039 122.505 32.206 122.519 32.437C122.534 32.7113 122.678 32.8484 122.952 32.8484H123.926C124.749 32.8484 125.391 32.834 125.853 32.8051C126.329 32.7762 126.69 32.7113 126.935 32.6102C127.181 32.4947 127.354 32.3359 127.455 32.1338C127.57 31.9318 127.671 31.6575 127.758 31.311L127.844 31.2244H128.862L128.451 34.4075L128.277 34.624C128.205 34.624 128.025 34.6168 127.736 34.6024C127.462 34.6024 127.152 34.5951 126.805 34.5807C126.459 34.5663 126.113 34.5518 125.766 34.5374C125.42 34.5374 125.146 34.5374 124.944 34.5374H120.571C120.47 34.5374 120.304 34.5446 120.073 34.559C119.843 34.5735 119.604 34.5879 119.359 34.6024C119.114 34.6168 118.876 34.6312 118.645 34.6457C118.414 34.6601 118.248 34.6673 118.147 34.6673L118.104 34.5807L118.169 33.7579L118.277 33.6713C118.508 33.6713 118.724 33.664 118.926 33.6496C119.128 33.6207 119.294 33.5558 119.424 33.4547C119.539 33.3537 119.648 33.2237 119.749 33.065C119.864 32.9062 119.936 32.6247 119.965 32.2205C119.965 32.1194 119.965 32.0039 119.965 31.874C119.98 31.7296 119.987 31.5564 119.987 31.3543C120.001 31.1522 120.008 30.9068 120.008 30.6181C120.008 30.3294 120.008 29.9685 120.008 29.5354V26.0059C120.008 25.5006 120.008 25.0748 120.008 24.7283C120.008 24.3819 120.008 24.0859 120.008 23.8405C120.008 23.5951 120.001 23.3858 119.987 23.2126C119.987 23.0394 119.98 22.8661 119.965 22.6929C119.936 22.3031 119.864 22.0216 119.749 21.8484C119.648 21.6752 119.539 21.5453 119.424 21.4587C119.294 21.3432 119.128 21.2782 118.926 21.2638C118.724 21.2493 118.508 21.2421 118.277 21.2421L118.169 21.1555L118.104 20.3327L118.147 20.2461C118.248 20.2461 118.414 20.2533 118.645 20.2677C118.876 20.2821 119.121 20.2966 119.381 20.311C119.655 20.3255 119.915 20.3399 120.16 20.3543C120.42 20.3688 120.629 20.376 120.788 20.376H124.338Z" fill="#28D890"/>
<path d="M107.548 34.7756L104.171 25.3779C104.013 24.9449 103.875 24.584 103.76 24.2953C103.659 24.0066 103.565 23.7611 103.479 23.559C103.406 23.3569 103.342 23.1909 103.284 23.061C103.226 22.9311 103.176 22.8084 103.132 22.6929C102.974 22.332 102.808 22.0577 102.634 21.8701C102.476 21.668 102.31 21.5236 102.137 21.437C101.963 21.3359 101.783 21.2782 101.595 21.2638C101.422 21.2493 101.242 21.2421 101.054 21.2421L100.946 21.1555L100.903 20.3327L100.924 20.2461C101.025 20.2605 101.17 20.2749 101.357 20.2894C101.559 20.3038 101.769 20.3182 101.985 20.3327C102.202 20.3471 102.411 20.3615 102.613 20.376C102.815 20.376 102.966 20.376 103.067 20.376H104.669C104.77 20.376 104.936 20.3688 105.167 20.3543C105.398 20.3399 105.636 20.3255 105.881 20.311C106.141 20.2966 106.386 20.2821 106.617 20.2677C106.848 20.2533 107.014 20.2461 107.115 20.2461L107.159 20.3327L107.094 21.1555L106.985 21.2421C106.567 21.2421 106.242 21.2926 106.011 21.3937C105.78 21.4803 105.665 21.7329 105.665 22.1516C105.665 22.4836 105.773 22.9527 105.99 23.559C106.221 24.1509 106.502 24.9016 106.834 25.811L108.154 29.3622C108.4 29.9396 108.602 30.4954 108.76 31.0295C108.919 31.5492 109.078 31.9823 109.237 32.3287C109.352 31.9967 109.511 31.5781 109.713 31.0728C109.915 30.5531 110.131 29.9829 110.362 29.3622L111.683 25.811C112.015 24.9016 112.289 24.1509 112.505 23.559C112.736 22.9527 112.852 22.4836 112.852 22.1516C112.852 21.7329 112.736 21.4803 112.505 21.3937C112.274 21.2926 111.95 21.2421 111.531 21.2421L111.423 21.1555L111.38 20.3327L111.423 20.2461C111.524 20.2605 111.683 20.2749 111.899 20.2894C112.116 20.3038 112.339 20.3182 112.57 20.3327C112.801 20.3471 113.025 20.3615 113.241 20.376C113.458 20.376 113.616 20.376 113.717 20.376H114.994C115.096 20.376 115.24 20.3688 115.427 20.3543C115.629 20.3399 115.839 20.3255 116.055 20.311C116.272 20.2966 116.481 20.2821 116.683 20.2677C116.885 20.2533 117.036 20.2461 117.137 20.2461L117.181 20.3327L117.116 21.1555L117.008 21.2421C116.82 21.2421 116.64 21.2493 116.466 21.2638C116.293 21.2782 116.12 21.3359 115.947 21.437C115.788 21.5236 115.622 21.668 115.449 21.8701C115.29 22.0577 115.124 22.332 114.951 22.6929C114.922 22.7651 114.886 22.8373 114.843 22.9094C114.814 22.9816 114.764 23.0971 114.691 23.2559C114.634 23.4003 114.547 23.6096 114.432 23.8838C114.316 24.1581 114.165 24.5335 113.977 25.0098C113.79 25.4718 113.551 26.0564 113.263 26.7638C112.989 27.4711 112.657 28.33 112.267 29.3405C112.065 29.8458 111.856 30.3727 111.639 30.9212C111.423 31.4554 111.221 31.9678 111.033 32.4587C110.846 32.935 110.68 33.3609 110.535 33.7362C110.391 34.1115 110.29 34.3786 110.232 34.5374L107.808 34.7756H107.548Z" fill="#28D890"/>
<path d="M95.471 20.1378L99.1942 29.9685C99.3241 30.3294 99.4395 30.6325 99.5405 30.8779C99.6415 31.1234 99.7209 31.3327 99.7786 31.5059C99.8508 31.6791 99.9085 31.8235 99.9518 31.939C100.01 32.04 100.06 32.1338 100.103 32.2205C100.277 32.5814 100.45 32.8629 100.623 33.065C100.81 33.2526 100.991 33.397 101.164 33.498C101.352 33.5846 101.539 33.6352 101.727 33.6496C101.914 33.664 102.102 33.6713 102.29 33.6713L102.398 33.7579L102.463 34.5807L102.419 34.6673C102.318 34.6673 102.167 34.6601 101.965 34.6457C101.763 34.6312 101.554 34.6168 101.337 34.6024C101.121 34.5879 100.911 34.5735 100.709 34.559C100.522 34.5446 100.378 34.5374 100.277 34.5374H98.6963C98.5953 34.5374 98.4293 34.5446 98.1985 34.559C97.9676 34.5735 97.7222 34.5879 97.4625 34.6024C97.2172 34.6168 96.979 34.6312 96.7481 34.6457C96.5173 34.6601 96.3513 34.6673 96.2503 34.6673L96.207 34.5807L96.2719 33.7579L96.3585 33.6713C96.7337 33.6713 97.0151 33.6279 97.2027 33.5413C97.4048 33.4403 97.5058 33.1804 97.5058 32.7618C97.5058 32.5308 97.4625 32.206 97.3759 31.7874C97.3037 31.3543 97.1234 30.8202 96.8347 30.185L96.3802 29.1457H92.5921L92.1591 30.185C91.8994 30.8202 91.7046 31.3615 91.5747 31.809C91.4448 32.2566 91.3799 32.5741 91.3799 32.7618C91.3799 33.1083 91.452 33.3464 91.5963 33.4764C91.7406 33.6063 92.0004 33.6713 92.3756 33.6713L92.4838 33.7579L92.5488 34.5807L92.5055 34.6673C92.4045 34.6673 92.2457 34.6601 92.0292 34.6457C91.8128 34.6312 91.5819 34.6168 91.3366 34.6024C91.1057 34.5879 90.882 34.5735 90.6655 34.559C90.4491 34.5446 90.2903 34.5374 90.1893 34.5374H88.9122C88.8112 34.5374 88.6596 34.5446 88.4576 34.559C88.2556 34.5735 88.0463 34.5879 87.8299 34.6024C87.6134 34.6168 87.4041 34.6312 87.2021 34.6457C87.0145 34.6601 86.8702 34.6673 86.7692 34.6673L86.7475 34.5807L86.7908 33.7579L86.8991 33.6713C87.0867 33.6713 87.2743 33.6568 87.4619 33.6279C87.6495 33.5991 87.8371 33.5341 88.0247 33.4331C88.2123 33.332 88.3927 33.1949 88.5658 33.0216C88.7534 32.834 88.941 32.5958 89.1286 32.3071C89.1719 32.2205 89.2369 32.0905 89.3235 31.9173C89.41 31.7297 89.5471 31.4048 89.7347 30.9429C89.9223 30.481 90.1821 29.8241 90.514 28.9724C90.8459 28.1207 91.2861 26.9875 91.8344 25.5728L93.696 20.7874L95.2329 20.1378H95.471ZM92.96 27.565H95.7957L94.4103 23.7323L92.96 27.565Z" fill="#28D890"/>
<path d="M81.3317 20.376C81.5338 20.376 81.8296 20.376 82.2192 20.376C82.6233 20.3615 83.0346 20.3471 83.4531 20.3327C83.8716 20.3182 84.2468 20.311 84.5787 20.311C84.9106 20.2966 85.1126 20.2894 85.1848 20.2894L85.3147 20.5059L85.2064 23.2992H84.2323L84.1458 23.2126C84.1169 22.9383 84.0736 22.7218 84.0159 22.563C83.9726 22.4042 83.8427 22.2887 83.6262 22.2165C83.4098 22.1443 83.0707 22.101 82.6089 22.0866C82.1615 22.0722 81.5338 22.065 80.7256 22.065H79.4918L79.4701 22.2598C79.4557 22.4619 79.4413 22.6496 79.4269 22.8228C79.4269 22.9961 79.4196 23.1982 79.4052 23.4291C79.4052 23.6601 79.4052 23.9416 79.4052 24.2736C79.4052 24.6056 79.4052 25.0315 79.4052 25.5512V26.2874C79.7515 26.273 80.0835 26.273 80.4009 26.2874C80.7184 26.2874 81.0143 26.2802 81.2884 26.2657C81.5626 26.2513 81.7935 26.2296 81.9811 26.2008C82.1832 26.1575 82.3275 26.0925 82.414 26.0059C82.5584 25.8615 82.6305 25.6594 82.6305 25.3996L82.7387 25.2913L83.5397 25.248L83.6262 25.2913C83.5974 25.6234 83.5685 25.9121 83.5397 26.1575C83.5252 26.4029 83.518 26.6844 83.518 27.002C83.518 27.3484 83.5252 27.6732 83.5397 27.9764C83.5685 28.2651 83.5974 28.5827 83.6262 28.9291L83.5397 28.9724L82.7171 28.9291L82.6305 28.8642C82.6305 28.5033 82.5656 28.2362 82.4357 28.063C82.3202 27.9042 81.9883 27.8176 81.44 27.8031C80.906 27.7743 80.3071 27.7598 79.6433 27.7598H79.4052V29.5354C79.4052 29.9541 79.4052 30.3005 79.4052 30.5748C79.4196 30.8491 79.4269 31.0873 79.4269 31.2894C79.4413 31.477 79.4557 31.6575 79.4701 31.8307C79.4846 32.0039 79.499 32.206 79.5134 32.437C79.5279 32.7113 79.6722 32.8484 79.9464 32.8484H80.9205C81.743 32.8484 82.3852 32.834 82.847 32.8051C83.3232 32.7762 83.684 32.7113 83.9293 32.6102C84.1746 32.4947 84.3478 32.3359 84.4488 32.1338C84.5643 31.9318 84.6653 31.6575 84.7519 31.311L84.8384 31.2244H85.8558L85.4445 34.4075L85.2714 34.624C85.1992 34.624 85.0188 34.6168 84.7302 34.6024C84.456 34.6024 84.1458 34.5951 83.7994 34.5807C83.4531 34.5663 83.1067 34.5518 82.7604 34.5374C82.414 34.5374 82.1399 34.5374 81.9378 34.5374H77.5653C77.4643 34.5374 77.2983 34.5446 77.0674 34.559C76.8365 34.5735 76.5984 34.5879 76.3531 34.6024C76.1077 34.6168 75.8696 34.6312 75.6387 34.6457C75.4078 34.6601 75.2419 34.6673 75.1409 34.6673L75.0976 34.5807L75.1625 33.7579L75.2708 33.6713C75.5016 33.6713 75.7181 33.664 75.9201 33.6496C76.1222 33.6207 76.2881 33.5558 76.418 33.4547C76.5335 33.3537 76.6417 33.2237 76.7427 33.065C76.8582 32.9062 76.9303 32.6247 76.9592 32.2205C76.9592 32.1194 76.9592 32.0039 76.9592 31.874C76.9736 31.7296 76.9808 31.5564 76.9808 31.3543C76.9952 31.1522 77.0025 30.9068 77.0025 30.6181C77.0025 30.3294 77.0025 29.9685 77.0025 29.5354V26.0059C77.0025 25.5006 77.0025 25.0748 77.0025 24.7283C77.0025 24.3819 77.0025 24.0859 77.0025 23.8405C77.0025 23.5951 76.9952 23.3858 76.9808 23.2126C76.9808 23.0394 76.9736 22.8661 76.9592 22.6929C76.9303 22.3031 76.8582 22.0216 76.7427 21.8484C76.6417 21.6752 76.5335 21.5453 76.418 21.4587C76.2881 21.3432 76.1222 21.2782 75.9201 21.2638C75.7181 21.2493 75.5016 21.2421 75.2708 21.2421L75.1625 21.1555L75.0976 20.3327L75.1409 20.2461C75.2419 20.2461 75.4078 20.2533 75.6387 20.2677C75.8696 20.2821 76.115 20.2966 76.3747 20.311C76.6489 20.3255 76.9087 20.3399 77.154 20.3543C77.4137 20.3688 77.623 20.376 77.7817 20.376H81.3317Z" fill="#28D890"/>
<path d="M65.0473 22.6929C65.0184 22.4475 64.9607 22.2093 64.8741 21.9783C64.8019 21.7329 64.6865 21.5525 64.5277 21.437C64.4123 21.3648 64.268 21.3143 64.0948 21.2854C63.9216 21.2566 63.6835 21.2421 63.3805 21.2421L63.2723 21.1555L63.2073 20.3327L63.2506 20.2461C63.3805 20.2605 63.5537 20.2749 63.7701 20.2894C64.001 20.3038 64.2319 20.3182 64.4628 20.3327C64.7081 20.3471 64.939 20.3615 65.1555 20.376C65.372 20.376 65.5451 20.376 65.675 20.376H66.9521C67.082 20.376 67.248 20.376 67.45 20.376C67.6665 20.3615 67.8901 20.3471 68.121 20.3327C68.3664 20.3182 68.5973 20.3038 68.8137 20.2894C69.0446 20.2749 69.2322 20.2605 69.3765 20.2461L69.4198 20.3327L69.3549 21.1555L69.2683 21.2421C68.9075 21.2421 68.6405 21.2638 68.4674 21.3071C68.3086 21.3359 68.1788 21.3865 68.0777 21.4587C67.7747 21.6608 67.6015 22.0722 67.5582 22.6929C67.5438 22.8373 67.5294 22.9888 67.5149 23.1476C67.5149 23.292 67.5149 23.4869 67.5149 23.7323C67.5149 23.9632 67.5149 24.2592 67.5149 24.6201C67.5149 24.981 67.5149 25.4357 67.5149 25.9842V28.8858C67.5149 29.4488 67.5149 29.9108 67.5149 30.2716C67.5149 30.6181 67.5149 30.914 67.5149 31.1594C67.5294 31.3904 67.5366 31.5997 67.5366 31.7874C67.551 31.9606 67.5727 32.1699 67.6015 32.4153C67.616 32.7041 67.7819 32.8484 68.0994 32.8484H70.1125C70.5887 32.8484 70.9639 32.8412 71.2381 32.8268C71.5267 32.7979 71.7504 32.7401 71.9091 32.6535C72.0679 32.5525 72.1905 32.4153 72.2771 32.2421C72.3637 32.0689 72.4431 31.8307 72.5152 31.5275L72.5802 31.4409H73.5759L73.1863 34.4075L73.0131 34.624C72.8977 34.6096 72.7173 34.5951 72.472 34.5807C72.2266 34.5807 71.9669 34.5735 71.6927 34.559C71.4185 34.559 71.1443 34.5518 70.8701 34.5374C70.6104 34.5374 70.4083 34.5374 70.264 34.5374H65.675C65.574 34.5374 65.408 34.5374 65.1771 34.5374C64.9607 34.5518 64.7298 34.5663 64.4845 34.5807C64.2391 34.5951 64.001 34.6096 63.7701 34.624C63.5392 34.6384 63.3661 34.6529 63.2506 34.6673L63.2073 34.5807L63.2723 33.7579L63.3805 33.6713C63.9289 33.6713 64.3041 33.5919 64.5061 33.4331C64.6215 33.332 64.7298 33.1732 64.8308 32.9567C64.9462 32.7401 65.0184 32.4875 65.0473 32.1988C65.0617 32.0545 65.0689 31.8596 65.0689 31.6142C65.0833 31.3543 65.0905 31.0873 65.0905 30.813C65.105 30.5387 65.1122 30.2861 65.1122 30.0551C65.1122 29.8097 65.1122 29.6365 65.1122 29.5354V26.0059C65.1122 25.2119 65.105 24.519 65.0905 23.9272C65.0905 23.3209 65.0761 22.9094 65.0473 22.6929Z" fill="#28D890"/>
</g>
</g>
</svg>
